<svg xmlns="http://www.w3.org/2000/svg" width="30" height="30" viewBox="0 0 30 30"><defs><style>.a{fill:#fff;stroke:#b5b9e1;}.b{fill:none;}.c{fill:#1a237e;}.d{stroke:none;}</style></defs><g transform="translate(-1031 -25)"><g class="a" transform="translate(1031 25)"><circle class="d" cx="15" cy="15" r="15"/><circle class="b" cx="15" cy="15" r="14.5"/></g><g transform="translate(1039.25 33.25)"><path class="b" d="M0,0H13.5V13.5H0Z"/><path class="c" d="M7.625,5.938A1.688,1.688,0,1,0,9.313,7.625,1.687,1.687,0,0,0,7.625,5.938Zm0-1.125A2.813,2.813,0,1,1,4.813,7.625,2.813,2.813,0,0,1,7.625,4.813Zm3.656-.141a.7.7,0,1,1-.7-.7A.7.7,0,0,1,11.281,4.672ZM7.625,3.125c-1.392,0-1.619,0-2.266.033a3.056,3.056,0,0,0-1.011.187,1.755,1.755,0,0,0-1,1,3.052,3.052,0,0,0-.186,1.011c-.029.621-.033.838-.033,2.266,0,1.392,0,1.619.033,2.266A3.068,3.068,0,0,0,3.344,10.9a1.749,1.749,0,0,0,1,1,3.062,3.062,0,0,0,1.012.187c.621.029.838.033,2.266.033,1.392,0,1.619,0,2.266-.033a3.074,3.074,0,0,0,1.011-.186,1.643,1.643,0,0,0,.608-.395,1.626,1.626,0,0,0,.4-.608,3.075,3.075,0,0,0,.187-1.012c.029-.621.033-.838.033-2.266,0-1.392,0-1.619-.033-2.266a3.062,3.062,0,0,0-.187-1.011,1.755,1.755,0,0,0-1-1,3.055,3.055,0,0,0-1.011-.186C9.27,3.128,9.053,3.125,7.625,3.125ZM7.625,2c1.528,0,1.719.006,2.319.034a4.144,4.144,0,0,1,1.366.262,2.743,2.743,0,0,1,1,.649,2.761,2.761,0,0,1,.649,1,4.155,4.155,0,0,1,.262,1.366c.026.6.034.79.034,2.319s-.006,1.719-.034,2.319a4.158,4.158,0,0,1-.262,1.366,2.872,2.872,0,0,1-1.645,1.645,4.155,4.155,0,0,1-1.366.262c-.6.026-.79.034-2.319.034s-1.719-.006-2.319-.034a4.158,4.158,0,0,1-1.366-.262A2.872,2.872,0,0,1,2.3,11.309a4.141,4.141,0,0,1-.262-1.366C2.007,9.344,2,9.153,2,7.625s.006-1.719.034-2.319A4.141,4.141,0,0,1,2.3,3.941,2.872,2.872,0,0,1,3.941,2.3a4.141,4.141,0,0,1,1.366-.262C5.906,2.007,6.1,2,7.625,2Z" transform="translate(-0.875 -0.875)"/></g></g></svg>