<svg xmlns="http://www.w3.org/2000/svg" width="30" height="30" viewBox="0 0 30 30"><defs><style>.a{fill:#fff;stroke:#b5b9e1;}.b{fill:none;}.c{fill:#1a237e;}.d{stroke:none;}</style></defs><g transform="translate(-1031 -25)"><g class="a" transform="translate(1031 25)"><circle class="d" cx="15" cy="15" r="15"/><circle class="b" cx="15" cy="15" r="14.5"/></g><g transform="translate(1039.25 33.25)"><path class="b" d="M0,0H13.5V13.5H0Z"/><path class="c" d="M13.244,4.8a4.716,4.716,0,0,1-1.351.37,2.36,2.36,0,0,0,1.035-1.3,4.7,4.7,0,0,1-1.494.571A2.352,2.352,0,0,0,7.426,6.58,6.679,6.679,0,0,1,2.577,4.122a2.356,2.356,0,0,0,.728,3.141A2.345,2.345,0,0,1,2.24,6.969V7A2.354,2.354,0,0,0,4.126,9.3a2.368,2.368,0,0,1-1.063.041,2.354,2.354,0,0,0,2.2,1.634,4.722,4.722,0,0,1-3.482.974,6.69,6.69,0,0,0,10.3-5.636c0-.1,0-.2-.007-.3A4.779,4.779,0,0,0,13.245,4.8Z" transform="translate(-0.778 -1.614)"/></g></g></svg>