<svg xmlns="http://www.w3.org/2000/svg" width="30" height="30" viewBox="0 0 30 30"><defs><style>.a{fill:#fff;stroke:#b5b9e1;}.b{fill:none;}.c{fill:#1a237e;}.d{stroke:none;}</style></defs><g transform="translate(-1031 -25)"><g class="a" transform="translate(1031 25)"><circle class="d" cx="15" cy="15" r="15"/><circle class="b" cx="15" cy="15" r="14.5"/></g><g transform="translate(1039.25 33.25)"><path class="b" d="M0,0H13.5V13.5H0Z"/><path class="c" d="M4.655,8.515l-.2,2.76a.686.686,0,0,0,.548-.265L6.323,9.752l2.728,2c.5.279.853.132.988-.46l1.79-8.39h0c.159-.74-.267-1.029-.755-.847L.551,6.081c-.718.279-.707.679-.122.861l2.691.837,6.25-3.911c.294-.195.562-.087.342.108Z" transform="translate(0.818 -0.193)"/></g></g></svg>