<svg xmlns="http://www.w3.org/2000/svg" width="60" height="60" viewBox="0 0 60 60"><defs><style>.a{fill:none;}.b{fill:#fff;}</style></defs><path class="a" d="M0,0H60V60H0Z"/><g transform="translate(1.132 1.131)"><path class="b" d="M1425.561,67.615s-5.343-5.465-5.413-5.956-2.179-6.8-2.179-6.8,2.32-6.516,2.6-6.516,6.958-4.274,6.958-4.274l7.24.35,5.763,5.535,1.265,5.816-2.53,8.548s-4.78,2.8-4.147,3.013,8.013,3.293,8.013,3.293l4.85,5.816,1.124,4.064-3.093,3.363-14.479,6.867-15.956-4.695-5.131-4.134V77.985l5.131-6.866Z" transform="translate(-1401.107 -32.907)"/><path class="b" d="M58.736,29.868A28.868,28.868,0,1,0,9.838,50.61a1.762,1.762,0,0,0,.455.413,28.7,28.7,0,0,0,39.151,0,1.762,1.762,0,0,0,.455-.413A28.765,28.765,0,0,0,58.736,29.868ZM29.868,4.608a25.224,25.224,0,0,1,19.8,40.9c-1.565-5.047-6.032-9-12.1-10.815a13.168,13.168,0,1,0-15.4,0C16.1,36.509,11.635,40.46,10.07,45.507a25.224,25.224,0,0,1,19.8-40.9ZM20.309,24.048a9.559,9.559,0,1,1,9.559,9.542A9.561,9.561,0,0,1,20.309,24.048ZM13.1,48.709C13.645,42.093,20.66,37.2,29.868,37.2s16.223,4.9,16.766,11.511a25.106,25.106,0,0,1-33.531,0Z" transform="translate(-1 -1)"/></g></svg>