<svg xmlns="http://www.w3.org/2000/svg" width="30" height="30" viewBox="0 0 30 30"><defs><style>.a{fill:#fff;stroke:#b5b9e1;}.b{fill:none;}.c{fill:#1a237e;}.d{stroke:none;}</style></defs><g transform="translate(-1031 -25)"><g class="a" transform="translate(1031 25)"><circle class="d" cx="15" cy="15" r="15"/><circle class="b" cx="15" cy="15" r="14.5"/></g><g transform="translate(1039.25 33.25)"><path class="b" d="M0,0H13.5V13.5H0Z"/><path class="c" d="M12.993,5.405A17.47,17.47,0,0,1,13.25,8.5a17.47,17.47,0,0,1-.257,3.095,1.581,1.581,0,0,1-1.09,1.137A28.737,28.737,0,0,1,7.625,13a28.749,28.749,0,0,1-4.278-.268,1.581,1.581,0,0,1-1.09-1.137A17.47,17.47,0,0,1,2,8.5a17.47,17.47,0,0,1,.257-3.095,1.581,1.581,0,0,1,1.09-1.137A28.749,28.749,0,0,1,7.625,4a28.737,28.737,0,0,1,4.278.268A1.581,1.581,0,0,1,12.993,5.405ZM6.5,10.469,9.875,8.5,6.5,6.531Z" transform="translate(-0.875 -1.75)"/></g></g></svg>