<svg xmlns="http://www.w3.org/2000/svg" width="40" height="40" viewBox="0 0 40 40"><defs><style>.a{fill:#0084c6;fill-rule:evenodd;}.b{fill:none;}.c{fill:#fff;}</style></defs><path class="a" d="M4.444,40H35.556A4.444,4.444,0,0,0,40,35.556V4.444A4.444,4.444,0,0,0,35.556,0H4.444A4.444,4.444,0,0,0,0,4.444V35.556A4.444,4.444,0,0,0,4.444,40Z"/><g transform="translate(4.743 4.743)"><path class="b" d="M0,0H30.515V30.515H0Z"/><path class="c" d="M14.714,27.429A12.714,12.714,0,1,1,27.429,14.714,12.714,12.714,0,0,1,14.714,27.429ZM10.76,16.2l.017-.009,1.106,3.649c.142.4.338.467.576.434a.879.879,0,0,0,.521-.31l1.51-1.46,3.242,2.4c.592.327,1.018.158,1.166-.549l2.107-9.945c.233-.926-.174-1.3-.893-1L7.738,14.191c-.844.338-.839.811-.153,1.021l3.175.992Z" transform="translate(0.543 0.543)"/></g></svg>