<svg xmlns="http://www.w3.org/2000/svg" width="20" height="20" viewBox="0 0 20 20"><defs><style>.a{fill:none;}.b{fill:#777;}</style></defs><g transform="translate(-1024 -50)"><rect class="a" width="20" height="20" transform="translate(1024 50)"/><g transform="translate(1025.824 51.15)"><g transform="translate(0 0.85)"><path class="b" d="M8.149,15.79H2.037a.679.679,0,0,1-.679-.679V2.887a.679.679,0,0,1,.679-.679H8.149a.679.679,0,0,0,0-1.358H2.037A2.04,2.04,0,0,0,0,2.887V15.111a2.04,2.04,0,0,0,2.037,2.037H8.149a.679.679,0,1,0,0-1.358Z" transform="translate(0 -0.85)"/></g><g transform="translate(5.433 4.246)"><path class="b" d="M180.818,111.435l-4.129-4.075a.679.679,0,1,0-.953.967l2.951,2.912h-7.907a.679.679,0,0,0,0,1.358h7.907l-2.951,2.912a.679.679,0,1,0,.953.967l4.129-4.075a.679.679,0,0,0,0-.967Z" transform="translate(-170.1 -107.165)"/></g></g></g></svg>