<svg xmlns="http://www.w3.org/2000/svg" width="50" height="50" viewBox="0 0 50 50"><defs><style>.a{fill:none;}.b{fill:#1a237e;}</style></defs><g transform="translate(-167 -296)"><rect class="a" width="50" height="50" transform="translate(167 296)"/><g transform="translate(133.833 298.224)"><g transform="translate(39.451)"><g transform="translate(0)"><path class="b" d="M72.339,5.643A19.265,19.265,0,0,0,39.451,19.265c0,10.41,9.843,19.069,15.131,23.72.735.646,1.369,1.2,1.875,1.677a3.319,3.319,0,0,0,4.519,0c.506-.472,1.14-1.03,1.875-1.677,5.288-4.652,15.131-13.31,15.131-23.72A19.14,19.14,0,0,0,72.339,5.643ZM61.088,40.982c-.751.661-1.4,1.231-1.934,1.73a.644.644,0,0,1-.876,0c-.535-.5-1.183-1.07-1.934-1.731-4.971-4.373-14.225-12.513-14.225-21.717a16.6,16.6,0,0,1,33.194,0C75.313,28.469,66.06,36.609,61.088,40.982Z" transform="translate(-39.451)"/></g></g><g transform="translate(50.226 10.048)"><path class="b" d="M169.06,112.938a8.49,8.49,0,1,0,8.49,8.49A8.5,8.5,0,0,0,169.06,112.938Zm0,14.312a5.822,5.822,0,1,1,5.822-5.822A5.828,5.828,0,0,1,169.06,127.25Z" transform="translate(-160.57 -112.938)"/></g></g></g></svg>