<svg xmlns="http://www.w3.org/2000/svg" width="20" height="20" viewBox="0 0 20 20"><defs><style>.a{fill:none;}.b{fill:#111;}</style></defs><g transform="translate(0.996 1.086)"><rect class="a" width="20" height="20" transform="translate(-0.996 -1.086)"/><g transform="translate(-0.392 -0.428)"><path class="b" d="M22.824,5.427l-.279.089-1.488.133-.42.671-.3-.1L19.146,5.155,18.975,4.6l-.23-.592L18,3.34l-.878-.172-.02.4.86.839.421.5-.473.247-.385-.114L16.947,4.8l.02-.466-.757-.312-.251,1.094-.763.173.076.611.995.191.172-.976.821.121.382.224h.612l.419.839,1.111,1.127-.081.438-.9-.114-1.548.782L16.142,9.869,16,10.461h-.4l-.746-.344-.724.344.18.764.315-.363.554-.017-.039.686.459.134.458.515.748-.21.855.135.993.267.5.058.841.954,1.622.954-1.049,2-1.108.515L19.033,18l-1.6,1.07-.171.617A9.326,9.326,0,0,0,22.824,5.427Z" transform="translate(-5.731 -1.285)"/><path class="b" d="M10.414,17.273l-.68-1.261.624-1.3-.624-.187-.7-.7-1.553-.348-.515-1.078v.64H6.738L5.4,11.22V9.729l-.981-1.6-1.558.278H1.812l-.528-.346.674-.534-.672.155A9.326,9.326,0,0,0,9.341,21.731a9.776,9.776,0,0,0,1.172-.081l-.1-1.131s.429-1.68.429-1.737S10.414,17.273,10.414,17.273Z" transform="translate(-0.004 -3.054)"/><path class="b" d="M4.93,3.011,6.589,2.78l.765-.419.86.248,1.375-.076.471-.74.687.113,1.668-.156.46-.507L13.521.81l.917.138L14.772.9A9.308,9.308,0,0,0,3.6,3.4h0ZM11.191.929,12.145.4l.612.354-.886.675-.847.085-.381-.247Zm-2.825.077.421.175.551-.175.3.52L8.367,1.86,7.755,1.5S8.353,1.116,8.367,1.005Z" transform="translate(-1.461)"/></g></g></svg>