<svg xmlns="http://www.w3.org/2000/svg" width="50" height="50" viewBox="0 0 50 50"><defs><style>.a{fill:none;}.b{fill:#1a237e;}</style></defs><g transform="translate(-167 -296)"><rect class="a" width="50" height="50" transform="translate(167 296)"/><g transform="translate(141.311 299.737)"><g transform="translate(40.967 4.984)"><g transform="translate(0)"><path class="b" d="M159.721,60a8.72,8.72,0,0,0-4.694,16.069,8.9,8.9,0,0,0,8.674.474,1.246,1.246,0,0,0-1.041-2.264,6.455,6.455,0,0,1-6.288-.308,6.229,6.229,0,1,1,9.579-5.25,1.246,1.246,0,0,1-2.492.019c0-.006,0-.013,0-.019a3.743,3.743,0,1,0-1.246,2.783,3.735,3.735,0,0,0,6.23-2.783A8.731,8.731,0,0,0,159.721,60Zm1.228,8.921a1.243,1.243,0,1,1,.009-.342A1.249,1.249,0,0,0,160.95,68.921Z" transform="translate(-151 -60)"/></g></g><g transform="translate(31)"><g transform="translate(0)"><path class="b" d="M68.377,16.361a1.254,1.254,0,0,0-.365-.879l-4.619-4.619V1.246A1.246,1.246,0,0,0,62.148,0H37.23a1.246,1.246,0,0,0-1.246,1.246v9.617l-4.619,4.619-.012.014a1.251,1.251,0,0,0-.353.865V38.789a3.742,3.742,0,0,0,3.738,3.738h29.9a3.742,3.742,0,0,0,3.738-3.738V16.361Zm-4.984-1.974,1.976,1.976-1.976,1.976ZM38.475,11.38h0V2.492H60.9v8.887h0V20.83l-6.746,6.746H45.221L38.475,20.83Zm-2.492,3.007v3.952l-1.976-1.976ZM33.492,38.273v-18.9l9.451,9.451Zm1.762,1.762,9.967-9.967h8.935l9.967,9.967Zm30.631-1.762-9.451-9.451,9.451-9.451Z" transform="translate(-31)"/></g></g></g></g></svg>