<svg xmlns="http://www.w3.org/2000/svg" width="50" height="50" viewBox="0 0 50 50"><defs><style>.a{fill:none;}.b{fill:#1a237e;}</style></defs><g transform="translate(-167 -296)"><rect class="a" width="50" height="50" transform="translate(167 296)"/><g transform="translate(185.25 297.665)"><path class="b" d="M19.917,4.912A4.912,4.912,0,0,0,15.005,0H-2.006A4.912,4.912,0,0,0-6.918,4.912V41.758A4.912,4.912,0,0,0-2.006,46.67H15.005a4.912,4.912,0,0,0,4.912-4.912Zm-24.5,3.605H17.584V35.7H-4.584Zm2.555-6.184H15.029A2.586,2.586,0,0,1,17.584,4.94V6.184H-4.584V4.94A2.586,2.586,0,0,1-2.029,2.333Zm17.058,42H-2.029a2.537,2.537,0,0,1-2.555-2.52v-3.78H17.584v3.75a2.537,2.537,0,0,1-2.525,2.55Zm0,0"/><path class="b" d="M105.6,428.75h-4.567a1.167,1.167,0,0,0,0,2.333H105.6a1.167,1.167,0,0,0,0-2.333Zm0,0" transform="translate(-96.821 -388.731)"/></g></g></svg>