<svg xmlns="http://www.w3.org/2000/svg" width="28" height="28" viewBox="0 0 28 28"><defs><style>.a{fill:none;}.b{fill:#dc0c15;}</style></defs><g transform="translate(1.7 0.679)"><rect class="a" width="28" height="28" transform="translate(-1.7 -0.679)"/><g transform="translate(0.305 1.361)"><path class="b" d="M11.976.021a11.976,11.976,0,1,0,7.316,21.458,2.02,2.02,0,0,0,.44-2.523,1.933,1.933,0,0,0-1.063-.922l.2-.225a1.5,1.5,0,0,0-.361-2.287l-2.636-1.543a1.533,1.533,0,0,0-1.874.3l-.585.658a.5.5,0,0,1-.788-.056L9.412,10.029A.5.5,0,0,1,9.619,9.3l.919-.427a1.5,1.5,0,0,0,.826-1.709L10.649,4.2A1.525,1.525,0,0,0,8.564,3.191l-.82.38A4.485,4.485,0,0,0,5.293,6.488l-.15.563A4.5,4.5,0,0,0,5.407,10.1l.738,1.591a21.391,21.391,0,0,0,4.389,6.243l.609.6a5.013,5.013,0,0,0,3.371,1.449l.165,0A5.032,5.032,0,0,0,17.7,18.968a.479.479,0,0,0,.052,0,.923.923,0,0,1,1.1.469,1.034,1.034,0,0,1-.2,1.278,10.874,10.874,0,0,1-6.682,2.268A10.978,10.978,0,1,1,22.957,12a.5.5,0,1,0,1,0A11.994,11.994,0,0,0,11.976.021Z" transform="translate(0 -0.021)"/></g></g></svg>