<svg xmlns="http://www.w3.org/2000/svg" width="20" height="20" viewBox="0 0 20 20"><defs><style>.a{fill:none;}.b{fill:#111;}</style></defs><path class="a" d="M0,0H20V20H0Z"/><g transform="translate(1.132 1.131)"><path class="b" d="M1415.091,51.331a23.887,23.887,0,0,1-1.663-1.836c-.022-.151-.669-2.1-.669-2.1a19.47,19.47,0,0,1,.8-2.009c.086,0,2.137-1.318,2.137-1.318l2.224.108,1.77,1.707.389,1.793-.777,2.636s-1.468.864-1.274.929,2.462,1.015,2.462,1.015l1.49,1.793.345,1.253-.95,1.037-4.448,2.117-4.9-1.447-1.576-1.275v-1.21l1.576-2.117Z" transform="translate(-1407.579 -40.63)"/><path class="b" d="M18.736,9.868A8.868,8.868,0,1,0,3.715,16.239a.541.541,0,0,0,.14.127,8.816,8.816,0,0,0,12.027,0,.541.541,0,0,0,.14-.127A8.836,8.836,0,0,0,18.736,9.868ZM9.868,2.108a7.748,7.748,0,0,1,6.082,12.563,5.285,5.285,0,0,0-3.716-3.322,4.045,4.045,0,1,0-4.732,0,5.285,5.285,0,0,0-3.716,3.322A7.748,7.748,0,0,1,9.868,2.108ZM6.931,8.08a2.936,2.936,0,1,1,2.936,2.931A2.937,2.937,0,0,1,6.931,8.08ZM4.718,15.655c.167-2.032,2.322-3.536,5.15-3.536s4.984,1.5,5.15,3.536a7.712,7.712,0,0,1-10.3,0Z" transform="translate(-1 -1)"/></g></svg>